<svg xmlns="http://www.w3.org/2000/svg" xmlns:xlink="http://www.w3.org/1999/xlink" width="20" height="20" version="1.1" viewBox="0 0 20 20"><title>ef7_black</title><desc>Created with Sketch.</desc><g id="ef7_black" fill="none" fill-rule="evenodd" stroke="none" stroke-width="1"><path id="Fill-1" fill="#000" stroke="#FFF" stroke-width="1.5" d="M7.2675,7.2675 L14.5,14.5 L7.2675,7.2675 C6.815,7.72 6.19,8 5.5,8 C4.12,8 3,6.88 3,5.5 C3,4.12 4.12,3 5.5,3 C6.88,3 8,4.12 8,5.5 C8,6.19 7.72,6.815 7.2675,7.2675 Z"/><path id="Fill-1-Copy" fill="#000" stroke="#FFF" stroke-width="1.5" d="M17,14.5 C17,15.88 15.88,17 14.5,17 C13.12,17 12,15.88 12,14.5 C12,13.12 13.12,12 14.5,12 C15.88,12 17,13.12 17,14.5"/></g></svg>